<svg aria-hidden="true" style="width:0;height:0;position:absolute;overflow:hidden" xmlns="http://www.w3.org/2000/svg"><defs><symbol id="icon-svg-search" viewBox="0 0 32 32"><path fill="none" stroke="#fff" style="stroke:var(--color1,#fff)" stroke-linejoin="round" stroke-linecap="round" stroke-width="2.667" d="M14.667 25.333c5.891 0 10.667-4.776 10.667-10.667S20.558 3.999 14.667 3.999v0C8.776 3.999 4 8.775 4 14.666s4.776 10.667 10.667 10.667v0zM28 28l-5.8-5.8"/></symbol><symbol id="icon-svg-heart" viewBox="0 0 32 32"><path fill="#ff6b08" style="fill:var(--color2,#ff6b08)" d="m16 31.287-2.24-2.217C5.44 21.783 0 16.869 0 10.853c0-4.917 3.84-8.715 8.8-8.715 2.72.002 5.44 1.269 7.2 3.326a9.64 9.64 0 0 1 7.195-3.323h.005c4.96 0 8.8 3.801 8.8 8.711 0 6.021-5.44 10.933-13.76 18.217L16 31.288z"/></symbol><symbol id="icon-svg-film" viewBox="0 0 32 32"><path fill="none" stroke="#fff" style="stroke:var(--color1,#fff)" stroke-linejoin="round" stroke-linecap="round" stroke-width="2.667" d="M26.427 2.667H5.574a2.907 2.907 0 0 0-2.907 2.907v20.853a2.907 2.907 0 0 0 2.907 2.907v0h20.853a2.907 2.907 0 0 0 2.907-2.907v0V5.574a2.907 2.907 0 0 0-2.907-2.907v0zm-17.094 0v26.667M22.667 2.667v26.667M2.667 16h26.667M2.667 9.333h6.667M2.667 22.667h6.667m13.333 0h6.667M22.667 9.333h6.667"/></symbol><symbol id="icon-svg-dots" viewBox="0 0 32 32"><path d="M5.174 12.8c.851 0 1.504.243 1.968.733.43.445.696 1.051.696 1.72l-.001.083v-.004l.001.072c0 .666-.265 1.269-.696 1.711v-.001c-.461.461-1.12.691-1.968.691-.813 0-1.456-.23-1.93-.691a2.37 2.37 0 0 1-.716-1.79v.004c0-.726.23-1.325.694-1.798.461-.49 1.11-.733 1.952-.733zm10.73 0c.848 0 1.504.243 1.968.733.43.445.696 1.051.696 1.72l-.001.083v-.004l.001.072c0 .666-.265 1.269-.696 1.711v-.001c-.464.461-1.12.691-1.968.691-.813 0-1.456-.23-1.933-.691a2.369 2.369 0 0 1-.712-1.697l.002-.09v.004c0-.726.23-1.325.691-1.798.461-.49 1.11-.733 1.952-.733zm10.72 0c.851 0 1.507.243 1.971.733.429.444.693 1.05.693 1.717l-.001.086v-.004l.001.075c0 .664-.264 1.266-.693 1.708l.001-.001c-.464.461-1.12.691-1.971.691-.813 0-1.456-.23-1.93-.691a2.373 2.373 0 0 1-.713-1.787v.004c0-.726.23-1.325.694-1.798.461-.49 1.114-.733 1.949-.733z"/></symbol><symbol id="icon-svg-arrow-right" viewBox="0 0 32 32"><path stroke-linejoin="round" stroke-linecap="round" stroke-width="2.666" d="M6.666 16h18.668M16 25.334 25.334 16 16 6.666"/></symbol><symbol id="icon-svg-arrow-left" viewBox="0 0 32 32"><path stroke-linejoin="round" stroke-linecap="round" stroke-width="2.666" d="M25.334 16H6.666M16 25.334 6.666 16 16 6.666"/></symbol><symbol id="icon-svg-close" viewBox="0 0 32 32"><path stroke-width="2.133" d="m8.533 8.533 14.933 14.933m-14.933.001L23.466 8.534"/></symbol><symbol id="icon-arrow-up" viewBox="0 0 32 32"><path d="M16 1 1 16h9v16h12V16h9z"/></symbol><symbol id="icon-github" viewBox="0 0 32 32"><path d="M16 .395c-8.836 0-16 7.163-16 16 0 7.069 4.585 13.067 10.942 15.182.8.148 1.094-.347 1.094-.77 0-.381-.015-1.642-.022-2.979-4.452.968-5.391-1.888-5.391-1.888-.728-1.849-1.776-2.341-1.776-2.341-1.452-.993.11-.973.11-.973 1.606.113 2.452 1.649 2.452 1.649 1.427 2.446 3.743 1.739 4.656 1.33.143-1.034.558-1.74 1.016-2.14-3.554-.404-7.29-1.777-7.29-7.907 0-1.747.625-3.174 1.649-4.295-.166-.403-.714-2.03.155-4.234 0 0 1.344-.43 4.401 1.64a15.353 15.353 0 0 1 4.005-.539c1.359.006 2.729.184 4.008.539 3.054-2.07 4.395-1.64 4.395-1.64.871 2.204.323 3.831.157 4.234 1.026 1.12 1.647 2.548 1.647 4.295 0 6.145-3.743 7.498-7.306 7.895.574.497 1.085 1.47 1.085 2.963 0 2.141-.019 3.864-.019 4.391 0 .426.288.925 1.099.768C27.421 29.457 32 23.462 32 16.395c0-8.837-7.164-16-16-16z"/></symbol><symbol id="icon-linkedin" viewBox="0 0 32 32"><path d="M29 0H3C1.35 0 0 1.35 0 3v26c0 1.65 1.35 3 3 3h26c1.65 0 3-1.35 3-3V3c0-1.65-1.35-3-3-3zM12 26H8V12h4v14zm-2-16c-1.106 0-2-.894-2-2s.894-2 2-2c1.106 0 2 .894 2 2s-.894 2-2 2zm16 16h-4v-8c0-1.106-.894-2-2-2s-2 .894-2 2v8h-4V12h4v2.481C18.825 13.35 20.087 12 21.5 12c2.488 0 4.5 2.238 4.5 5v9z"/></symbol><symbol id="icon-close" viewBox="0 0 32 32"><path stroke-width="2.133" d="m8.533 8.533 14.933 14.933m-14.933.001L23.466 8.534"/></symbol></defs></svg>