<svg aria-hidden="true" style="position: absolute; width: 0; height: 0; overflow: hidden;" version="1.1" xmlns="http://www.w3.org/2000/svg" xmlns:xlink="http://www.w3.org/1999/xlink">
<defs>
<symbol id="icon-svg-search" viewBox="0 0 32 32">
<path fill="none" stroke="#fff" style="stroke: var(--color1, #fff)" stroke-linejoin="round" stroke-linecap="round" stroke-miterlimit="4" stroke-width="2.6667" d="M14.667 25.333c5.891 0 10.667-4.776 10.667-10.667s-4.776-10.667-10.667-10.667v0c-5.891 0-10.667 4.776-10.667 10.667s4.776 10.667 10.667 10.667v0zM28 28l-5.8-5.8"></path>
</symbol>
<symbol id="icon-svg-heart" viewBox="0 0 32 32">
<path fill="#ff6b08" style="fill: var(--color2, #ff6b08)" d="M16 31.287l-2.24-2.217c-8.32-7.287-13.76-12.201-13.76-18.217 0-4.917 3.84-8.715 8.8-8.715 2.72 0.002 5.44 1.269 7.2 3.326 1.761-2.019 4.329-3.296 7.195-3.323l0.005-0c4.96 0 8.8 3.801 8.8 8.711 0 6.021-5.44 10.933-13.76 18.217l-2.24 2.219z"></path>
</symbol>
<symbol id="icon-svg-film" viewBox="0 0 32 32">
<path fill="none" stroke="#fff" style="stroke: var(--color1, #fff)" stroke-linejoin="round" stroke-linecap="round" stroke-miterlimit="4" stroke-width="2.6667" d="M26.427 2.667h-20.853c-1.605 0-2.907 1.301-2.907 2.907v0 20.853c0 1.605 1.301 2.907 2.907 2.907v0h20.853c1.605 0 2.907-1.301 2.907-2.907v0-20.853c0-1.605-1.301-2.907-2.907-2.907v0zM9.333 2.667v26.667M22.667 2.667v26.667M2.667 16h26.667M2.667 9.333h6.667M2.667 22.667h6.667M22.667 22.667h6.667M22.667 9.333h6.667"></path>
</symbol>
<symbol id="icon-svg-dots" viewBox="0 0 32 32">
<path d="M5.174 12.8c0.851 0 1.504 0.243 1.968 0.733 0.43 0.445 0.696 1.051 0.696 1.72 0 0.028-0 0.055-0.001 0.083l0-0.004c0.001 0.021 0.001 0.047 0.001 0.072 0 0.666-0.265 1.269-0.696 1.711l0-0.001c-0.461 0.461-1.12 0.691-1.968 0.691-0.813 0-1.456-0.23-1.93-0.691-0.443-0.432-0.718-1.035-0.718-1.703 0-0.029 0.001-0.058 0.002-0.087l-0 0.004c0-0.726 0.23-1.325 0.694-1.798 0.461-0.49 1.11-0.733 1.952-0.733zM15.904 12.8c0.848 0 1.504 0.243 1.968 0.733 0.43 0.445 0.696 1.051 0.696 1.72 0 0.028-0 0.055-0.001 0.083l0-0.004c0.001 0.021 0.001 0.047 0.001 0.072 0 0.666-0.265 1.269-0.696 1.711l0-0.001c-0.464 0.461-1.12 0.691-1.968 0.691-0.813 0-1.456-0.23-1.933-0.691-0.44-0.432-0.712-1.032-0.712-1.697 0-0.030 0.001-0.060 0.002-0.090l-0 0.004c0-0.726 0.23-1.325 0.691-1.798 0.461-0.49 1.11-0.733 1.952-0.733zM26.624 12.8c0.851 0 1.507 0.243 1.971 0.733 0.429 0.444 0.693 1.050 0.693 1.717 0 0.029-0 0.057-0.001 0.086l0-0.004c0.001 0.022 0.001 0.049 0.001 0.075 0 0.664-0.264 1.266-0.693 1.708l0.001-0.001c-0.464 0.461-1.12 0.691-1.971 0.691-0.813 0-1.456-0.23-1.93-0.691-0.441-0.432-0.715-1.034-0.715-1.7 0-0.029 0.001-0.058 0.002-0.087l-0 0.004c0-0.726 0.23-1.325 0.694-1.798 0.461-0.49 1.114-0.733 1.949-0.733z"></path>
</symbol>
<symbol id="icon-svg-arrow-right" viewBox="0 0 32 32">
<path stroke-linejoin="round" stroke-linecap="round" stroke-miterlimit="4" stroke-width="2.666" d="M6.666 16h18.668M16 25.334l9.334-9.334-9.334-9.334"></path>
</symbol>
<symbol id="icon-svg-arrow-left" viewBox="0 0 32 32">
<path stroke-linejoin="round" stroke-linecap="round" stroke-miterlimit="4" stroke-width="2.666" d="M25.334 16h-18.668M16 25.334l-9.334-9.334 9.334-9.334"></path>
</symbol>
<symbol id="icon-svg-close" viewBox="0 0 32 32">
<path stroke-linejoin="miter" stroke-linecap="butt" stroke-miterlimit="4" stroke-width="2.1333" d="M8.533 8.533l14.933 14.933M8.533 23.467l14.933-14.933"></path>
</symbol>
<symbol id="icon-arrow-up" viewBox="0 0 32 32">
<path d="M16 1l-15 15h9v16h12v-16h9z"></path>
</symbol>
</defs>
</svg>
